<svg width="61" height="72" viewBox="0 0 61 72" fill="none" xmlns="http://www.w3.org/2000/svg">
<ellipse cx="30.2107" cy="43.5" rx="24.6811" ry="17.4223" transform="rotate(-35.4072 30.2107 43.5)" fill="url(#paint0_linear_3_22)"/>
<path d="M25.2773 52.2C23.4373 52.2 21.7707 51.7467 20.2773 50.84C18.8107 49.9333 17.6507 48.6267 16.7973 46.92C15.944 45.1867 15.5173 43.1467 15.5173 40.8C15.5173 36.7467 16.384 33 18.1173 29.56C19.8507 26.0933 22.4107 23.32 25.7973 21.24C29.184 19.1333 33.2507 18.08 37.9973 18.08C39.224 18.08 40.5307 18.1733 41.9173 18.36C43.3307 18.5467 44.6107 18.8267 45.7573 19.2C46.504 19.4133 46.8773 19.9467 46.8773 20.8C46.8773 21.4933 46.6107 22.1467 46.0773 22.76C45.5707 23.3733 44.9707 23.68 44.2773 23.68C44.064 23.68 43.904 23.6667 43.7973 23.64C42.4107 23.32 41.224 23.0933 40.2373 22.96C39.2507 22.8 38.2107 22.72 37.1173 22.72C33.7307 22.72 30.8507 23.5467 28.4773 25.2C26.104 26.8267 24.3307 28.9867 23.1573 31.68C21.984 34.3733 21.3973 37.28 21.3973 40.4C21.3973 42.6667 21.8373 44.4267 22.7173 45.68C23.624 46.9067 24.7973 47.52 26.2373 47.52C27.864 47.52 29.2907 46.8533 30.5173 45.52C31.744 44.1867 32.864 42.0267 33.8773 39.04C34.8907 36.0533 35.8907 32 36.8773 26.88C37.0373 26.1333 37.3573 25.6267 37.8373 25.36C38.3173 25.0933 38.9573 24.96 39.7573 24.96C41.6507 24.96 42.5973 25.5733 42.5973 26.8C42.5973 27.0133 42.5573 27.28 42.4773 27.6C41.784 30.1867 41.144 33.0533 40.5573 36.2C39.9973 39.32 39.7173 41.6933 39.7173 43.32C39.7173 44.76 39.9307 45.8133 40.3573 46.48C40.784 47.12 41.4373 47.44 42.3173 47.44C43.1707 47.44 43.984 47.16 44.7573 46.6C45.5307 46.0133 46.504 45.0267 47.6773 43.64C47.9973 43.2667 48.3573 43.08 48.7573 43.08C49.104 43.08 49.3707 43.24 49.5573 43.56C49.7707 43.88 49.8773 44.32 49.8773 44.88C49.8773 45.92 49.624 46.7467 49.1173 47.36C47.8107 48.9333 46.5307 50.1333 45.2773 50.96C44.024 51.7867 42.4907 52.2 40.6773 52.2C38.8107 52.2 37.304 51.6667 36.1573 50.6C35.0107 49.5067 34.2907 47.9733 33.9973 46C32.024 50.1333 29.1173 52.2 25.2773 52.2Z" fill="black"/>
<defs>
<linearGradient id="paint0_linear_3_22" x1="5.52955" y1="43.5" x2="54.8918" y2="43.5" gradientUnits="userSpaceOnUse">
<stop stop-color="#DDD6F3"/>
<stop offset="1" stop-color="#FAACA8"/>
</linearGradient>
</defs>
</svg>
